# xmcd CD database file
#
# Track frame offsets:
#	150
#	41801
#	76641
#	102391
#	131241
#	147641
#	180591
#	214511
#
# Disc length: 3309 seconds
#
# Revision: 0
# Processed by: cddbd v1.5.1PL0 Copyright (c) Steve Scherf et al.
# Submitted via: CDex 1.51
#
DISCID=700ceb08
DTITLE=Hiroshima Wind Orchestra - Band Classics Library Vol. 1
DYEAR=1900
DGENRE=Wind Band
TTITLE0=Alfred Reed - The Hounds of Spring
TTITLE1=John Barnes Chance - Variations on a Korean Folk Song
TTITLE2=Robert Sheldon - Manatee Lyric Overture
TTITLE3=Robert Jager - Sinfonia Nobilissima
TTITLE4=James Swearingen - Romanesque
TTITLE5=James Barnes - Appalachian Overture
TTITLE6=Rex Mitchell - A Song of the Sea
TTITLE7=William H. Hill - St. Anthony Variations
EXTD=
EXTT0=
EXTT1=
EXTT2=
EXTT3=
EXTT4=
EXTT5=
EXTT6=
EXTT7=
PLAYORDER=
